<svg xmlns="http://www.w3.org/2000/svg" viewBox="0 0 250 250"><path d="M200.2,189.89a4,4,0,0,0,2.8-1.2,41.29,41.29,0,0,0,1.4-5.8c.2-4,.6-13.4.4-24.6a46.69,46.69,0,0,0,16,9c-.2,11.4-1,24.6-2,30-1.4,6-3.4,9.4-6.2,12a20.11,20.11,0,0,1-11.6,3.8H190.6c-5.2,0-10.4-1.6-13.8-5.6-3.2-3.4-4.2-7.6-4.2-21v-96H159.8v8.6c0,41-3.4,85-35.4,116.8-4.4-4.6-12.8-11.6-18.6-14.6a91.64,91.64,0,0,0,14.8-18.6H88.2v31.6h-22v-31.6H30.8v-20.6H66.2v-11.8H37.8V78.09H66.2V67.29H33.6V46.69H66.2V27.89H88.6v18.8h31.8v20.6H88.6v10.8H118v72.2H88.2v11.8h33.6v18.6c14.4-24.8,16.2-53.6,16.2-81.6v-8.6H122.4V69.69H138V28.09h21.8v41.6h34.6v115.6a7,7,0,0,0,.6,3.2,3,3,0,0,0,2.4,1.4ZM56,106.69H68.6v-12H56Zm0,27.2H68.6v-11.8H56Zm43.2-39.2H86v12H99.2Zm0,27.4H86v11.8H99.2Z" style="fill:#fff"/><rect width="250" height="250" style="fill:none"/></svg>